<?xml version="1.0" encoding="iso-8859-1"?>
<!-- Generator: Adobe Illustrator 19.0.0, SVG Export Plug-In . SVG Version: 6.00 Build 0)  -->
<svg version="1.1" id="Capa_1" xmlns="http://www.w3.org/2000/svg" xmlns:xlink="http://www.w3.org/1999/xlink" x="0px" y="0px"
	 viewBox="0 0 496 496" style="enable-background:new 0 0 496 496;" xml:space="preserve">
<g>
	<path style="fill:#F0BC5E;" d="M408,208c0,0-16,16-40,16s-40-16-40-16c-1.288-1-2.528-1.912-3.784-2.856
		C316.592,214.712,312,226.808,312,240c0,0,22.4,16,56,16s56-16,56-16c0-13.184-4.584-25.28-12.208-34.848
		C410.536,206.096,409.288,207.008,408,208z"/>
	<rect x="72" y="448" style="fill:#F0BC5E;" width="216" height="40"/>
	<path style="fill:#F0BC5E;" d="M216,9.44C210.784,8.56,205.464,8,200,8h-48c-5.464,0-10.784,0.56-16,1.44V104h80V9.44z"/>
</g>
<path d="M301.264,310.352L232,297.36V288h8c17.296,0,31.928-11.104,37.496-26.504l0.16,0.16
	C294.648,244.672,304,222.088,304,198.064V104C304,46.656,257.344,0,200,0h-48C94.656,0,48,46.656,48,104v94.064
	c0,24.024,9.352,46.608,26.344,63.592l0.16-0.16C80.072,276.896,94.704,288,112,288h8v9.448l-62.12,12.424
	C24.344,316.576,0,346.264,0,380.472V496h360V381.12C360,346.496,335.304,316.736,301.264,310.352z M125.368,312.68l38.072,38.072
	l-30.168,20.112l-12.72-57.224L125.368,312.68z M226.672,312.64l4.792,0.896l-12.744,57.328l-30.168-20.112L226.672,312.64z
	 M139.528,272c-6.984-7.6-12.208-16.392-15.48-25.928c6.056,0.48,12.688,0.904,19.944,1.232V272H139.528z M192,208v23.808
	c-5.112,0.112-10.392,0.192-16,0.192s-10.888-0.08-16-0.192V208H192z M208,208h24v14.064c0,2.56-0.144,5.096-0.4,7.616
	c-6.952,0.624-14.792,1.184-23.6,1.6V208z M248,222.064V208h16v17.472c-3.712,0.68-9.192,1.568-16.288,2.472
	C247.84,225.992,248,224.04,248,222.064z M232,128H120c-10.432,0-19.328-6.688-22.632-16h157.256
	C251.328,121.312,242.432,128,232,128z M104,140.608c4.912,2.16,10.304,3.392,16,3.392h112c5.696,0,11.088-1.232,16-3.392V192H104
	V140.608z M104,208v14.064c0,1.976,0.16,3.928,0.288,5.88c-7.096-0.904-12.576-1.792-16.288-2.472V208H104z M120,222.064V208h24
	v23.272c-8.808-0.416-16.656-0.976-23.6-1.6C120.144,227.16,120,224.624,120,222.064z M160,247.808
	c5.12,0.112,10.392,0.192,16,0.192s10.88-0.08,16-0.192V272h-32V247.808z M208,247.296c7.256-0.328,13.896-0.752,19.944-1.232
	c-3.272,9.544-8.496,18.336-15.48,25.928H208V247.296z M240,272h-7.112c5.664-8.448,9.72-17.776,12.216-27.592
	c7.92-0.912,14.248-1.864,18.888-2.664V248C264,261.232,253.232,272,240,272z M64,104c0-48.52,39.48-88,88-88h48
	c48.52,0,88,39.48,88,88v94.064c0,11.808-2.808,23.168-8,33.4V192h-16v-64h-0.208c5.08-6.704,8.208-14.96,8.208-24v-8H80v8
	c0,9.04,3.128,17.296,8.208,24H88v64H72v39.464c-5.192-10.232-8-21.592-8-33.4V104z M88,248v-6.256
	c4.648,0.8,10.976,1.752,18.888,2.664c2.504,9.816,6.56,19.152,12.216,27.592H112C98.768,272,88,261.232,88,248z M216,288v12.688
	l-40,40l-40-40V288H216z M16,432h48v48H16V432z M296,480v-48h48v48H296z M344,416h-48v-40h-16v104H80V376H64v40H16v-35.528
	c0-26.6,18.936-49.696,45.016-54.912l43.848-8.768l17.856,80.352l53.28-35.52l53.28,35.52l17.92-80.648l51.12,9.584
	c26.472,4.96,45.68,28.104,45.68,55.04V416z"/>
<circle cx="216" cy="168" r="8"/>
<circle cx="136" cy="168" r="8"/>
<path d="M176,80c13.232,0,24-10.768,24-24s-10.768-24-24-24s-24,10.768-24,24S162.768,80,176,80z M176,48c4.408,0,8,3.584,8,8
	s-3.592,8-8,8s-8-3.584-8-8S171.592,48,176,48z"/>
<rect x="96" y="416" width="16" height="16"/>
<rect x="128" y="416" width="16" height="16"/>
<path d="M472,0h-80c-13.232,0-24,10.768-24,24v152c-35.288,0-64,28.712-64,64s28.712,64,64,64v56c0,13.232,10.768,24,24,24h8v112h64
	V384h8c13.232,0,24-10.768,24-24V24C496,10.768,485.232,0,472,0z M468.688,16l-16,16h-41.376l-16-16H468.688z M384,27.312
	L404.688,48h54.624L480,27.312V320h-24V64h-48v126.12c-6.96-5.592-15.112-9.712-24-12.016V27.312z M320,240
	c0-26.472,21.528-48,48-48s48,21.528,48,48s-21.528,48-48,48S320,266.472,320,240z M408,289.88V320h-24v-18.104
	C392.888,299.592,401.04,295.472,408,289.88z M448,480h-32v-96h32V480z M472,368h-8h-64h-8c-4.408,0-8-3.584-8-8v-24h40v-65.088
	c5.088-9.176,8-19.704,8-30.912s-2.912-21.744-8-30.912V80h16v256h40v24C480,364.416,476.408,368,472,368z"/>
</svg>
