<svg xmlns="http://www.w3.org/2000/svg" xmlns:xlink="http://www.w3.org/1999/xlink" viewBox="0 0 615.27 412.84"><defs><style>.cls-1{isolation:isolate;}.cls-2{fill:#b00f17;}.cls-26,.cls-3{mix-blend-mode:screen;}.cls-3{fill:url(#radial-gradient);}.cls-4{fill:#e8e8e8;}.cls-5{fill:#dee1e3;}.cls-6{fill:url(#linear-gradient);}.cls-7{fill:url(#linear-gradient-2);}.cls-8{fill:url(#linear-gradient-3);}.cls-9{fill:url(#linear-gradient-4);}.cls-10{fill:url(#linear-gradient-5);}.cls-11{fill:url(#linear-gradient-6);}.cls-12{fill:url(#linear-gradient-7);}.cls-13{fill:url(#linear-gradient-8);}.cls-14{fill:url(#linear-gradient-9);}.cls-15{fill:url(#linear-gradient-10);}.cls-16{fill:url(#linear-gradient-11);}.cls-17{fill:url(#linear-gradient-12);}.cls-18{fill:url(#linear-gradient-13);}.cls-19{fill:url(#linear-gradient-14);}.cls-20{fill:url(#linear-gradient-15);}.cls-21{fill:url(#linear-gradient-16);}.cls-22{fill:url(#linear-gradient-17);}.cls-23{fill:url(#linear-gradient-18);}.cls-24{fill:#bc020c;}.cls-25{fill:#520405;}.cls-26{fill:url(#radial-gradient-2);}</style><radialGradient id="radial-gradient" cx="163.33" cy="200.42" r="162.57" gradientTransform="translate(0 -3.67) scale(1 1.01)" gradientUnits="userSpaceOnUse"><stop offset="0" stop-color="#fb8388"/><stop offset="0.09" stop-color="#e76b70"/><stop offset="0.29" stop-color="#c23d42"/><stop offset="0.47" stop-color="#a71c21"/><stop offset="0.62" stop-color="#96070d"/><stop offset="0.71" stop-color="#900006"/></radialGradient><linearGradient id="linear-gradient" x1="118.74" y1="395.53" x2="132.34" y2="413.89" gradientUnits="userSpaceOnUse"><stop offset="0" stop-color="#b82321"/><stop offset="1" stop-color="#8e0100"/></linearGradient><linearGradient id="linear-gradient-2" x1="104.97" y1="384.62" x2="114.58" y2="404.19" xlink:href="#linear-gradient"/><linearGradient id="linear-gradient-3" x1="90.07" y1="367.18" x2="101.87" y2="389.44" xlink:href="#linear-gradient"/><linearGradient id="linear-gradient-4" x1="79.11" y1="348.76" x2="91.09" y2="377.56" xlink:href="#linear-gradient"/><linearGradient id="linear-gradient-5" x1="68.89" y1="321.98" x2="75.72" y2="350.77" xlink:href="#linear-gradient"/><linearGradient id="linear-gradient-6" x1="63.04" y1="304.86" x2="68.05" y2="329.19" xlink:href="#linear-gradient"/><linearGradient id="linear-gradient-7" x1="58.87" y1="282.04" x2="61.72" y2="304.94" xlink:href="#linear-gradient"/><linearGradient id="linear-gradient-8" x1="56.6" y1="261.59" x2="57.77" y2="283.11" xlink:href="#linear-gradient"/><linearGradient id="linear-gradient-9" x1="55.85" y1="243.35" x2="55.99" y2="263.83" xlink:href="#linear-gradient"/><linearGradient id="linear-gradient-10" x1="56.93" y1="227.56" x2="55.5" y2="245.89" xlink:href="#linear-gradient"/><linearGradient id="linear-gradient-11" x1="59.62" y1="210.74" x2="56.49" y2="231.15" xlink:href="#linear-gradient"/><linearGradient id="linear-gradient-12" x1="64.32" y1="193.16" x2="59.07" y2="212.66" xlink:href="#linear-gradient"/><linearGradient id="linear-gradient-13" x1="69.06" y1="176.66" x2="63.62" y2="196.5" xlink:href="#linear-gradient"/><linearGradient id="linear-gradient-14" x1="76.29" y1="162.24" x2="69.38" y2="179.37" xlink:href="#linear-gradient"/><linearGradient id="linear-gradient-15" x1="84.27" y1="148.97" x2="75.79" y2="166.12" xlink:href="#linear-gradient"/><linearGradient id="linear-gradient-16" x1="96.84" y1="136.71" x2="83.47" y2="151.05" xlink:href="#linear-gradient"/><linearGradient id="linear-gradient-17" x1="110.46" y1="121.65" x2="93.49" y2="140.9" xlink:href="#linear-gradient"/><linearGradient id="linear-gradient-18" x1="137.67" y1="104.81" x2="113.76" y2="123.65" gradientUnits="userSpaceOnUse"><stop offset="0" stop-color="#b82321"/><stop offset="0.3" stop-color="#b01d1b"/><stop offset="0.77" stop-color="#9b0c0a"/><stop offset="1" stop-color="#8e0100"/></linearGradient><radialGradient id="radial-gradient-2" cx="280.56" cy="258.35" r="32.82" gradientUnits="userSpaceOnUse"><stop offset="0" stop-color="#fb8388"/><stop offset="0.09" stop-color="#e76b70"/><stop offset="0.29" stop-color="#c23d42"/><stop offset="0.47" stop-color="#a71c21"/><stop offset="0.61" stop-color="#96070d"/><stop offset="0.71" stop-color="#900006"/></radialGradient></defs><title>Asset 7</title><g class="cls-1"><g id="Layer_2" data-name="Layer 2"><g id="Layer_1-2" data-name="Layer 1"><path class="cls-2" d="M309.25,157H323.4a30.81,30.81,0,0,1,7,.72,13,13,0,0,1,5.1,2.33,10,10,0,0,1,3.1,4.21,17.2,17.2,0,0,1,1.05,6.41,18.3,18.3,0,0,1-.48,4.29,11.79,11.79,0,0,1-1.42,3.51A9.28,9.28,0,0,1,335.5,181a7.42,7.42,0,0,1-3.09,1.34v.37a13.75,13.75,0,0,1,3.25,1.28,8.4,8.4,0,0,1,2.65,2.31,11.2,11.2,0,0,1,1.77,3.67,22.17,22.17,0,0,1-.39,12,13.82,13.82,0,0,1-2.94,4.92A12.5,12.5,0,0,1,332.1,210a17.07,17.07,0,0,1-6.19,1.07H309.25Zm10.16,21.39h4.14c1.94,0,3.3-.52,4.08-1.55a7.68,7.68,0,0,0,1.16-4.65c0-2.07-.45-3.56-1.36-4.46a5.86,5.86,0,0,0-4.25-1.34h-3.77Zm0,9.09v14.07H324a6.19,6.19,0,0,0,2.66-.51,4.44,4.44,0,0,0,1.73-1.48,6.22,6.22,0,0,0,1-2.33,14.14,14.14,0,0,0,.3-3,11.48,11.48,0,0,0-.3-2.71,5.49,5.49,0,0,0-1-2.13,4.62,4.62,0,0,0-1.8-1.38,6.79,6.79,0,0,0-2.77-.5Z"/><path class="cls-2" d="M369.12,211.76a17.75,17.75,0,0,1-6.85-1.29,14.4,14.4,0,0,1-5.4-3.9,18.19,18.19,0,0,1-3.52-6.58,30.86,30.86,0,0,1-1.26-9.32,35.41,35.41,0,0,1,1.13-9.5,20.11,20.11,0,0,1,3.17-6.78,13.25,13.25,0,0,1,4.95-4.08,15.87,15.87,0,0,1,12.6-.13,12.35,12.35,0,0,1,4.66,3.64,17.48,17.48,0,0,1,2.93,5.89,28.22,28.22,0,0,1,1,8v5.47H362.91q.12,5.2,2.2,7.7a7,7,0,0,0,5.67,2.49,15,15,0,0,0,2.79-.25,18.56,18.56,0,0,0,2.61-.71,23.22,23.22,0,0,0,2.4-1c.76-.37,1.49-.76,2.18-1.15v8.57a19.31,19.31,0,0,1-5.29,2.16A25.23,25.23,0,0,1,369.12,211.76ZM367.75,177a3.69,3.69,0,0,0-3.21,2.11q-1.26,2.1-1.48,6.61h9.31a22.83,22.83,0,0,0-.31-3.47,10.55,10.55,0,0,0-.85-2.76,5.13,5.13,0,0,0-1.44-1.82A3.19,3.19,0,0,0,367.75,177Z"/><path class="cls-2" d="M413.59,168.94l.72,0c.26,0,.51,0,.77.08s.49.07.7.11a1.6,1.6,0,0,1,.47.13v10.56a3.59,3.59,0,0,0-.58-.15c-.25,0-.53-.09-.81-.12a8.14,8.14,0,0,0-.85-.08l-.72,0a7.74,7.74,0,0,0-3,.56,5.66,5.66,0,0,0-2.33,1.79,9.1,9.1,0,0,0-1.53,3.25,18.8,18.8,0,0,0-.56,4.93v21H395.15v-41.3h8.68l1.3,6.21h.37A26.81,26.81,0,0,1,407,173a9.56,9.56,0,0,1,1.71-2.19,6.79,6.79,0,0,1,4.92-1.91Z"/><path class="cls-2" d="M438.21,211H427.54V153.54h10.67Z"/><path class="cls-2" d="M509.45,211H498.7V186.9a16.92,16.92,0,0,0-1-6.71,3.37,3.37,0,0,0-3.23-2.23,4.29,4.29,0,0,0-2.77.88,6,6,0,0,0-1.77,2.63,16.44,16.44,0,0,0-.93,4.28q-.25,2.55-.26,5.84V211H478v-41.3h8.32l1.44,5.28h.59a10.88,10.88,0,0,1,1.84-2.73,10.72,10.72,0,0,1,2.35-1.89,10.55,10.55,0,0,1,2.7-1.09,12.18,12.18,0,0,1,2.9-.35,12,12,0,0,1,4.67.87,8.88,8.88,0,0,1,3.56,2.72,13.11,13.11,0,0,1,2.29,4.71,25,25,0,0,1,.82,6.85Z"/><path class="cls-2" d="M327.45,238.25a5.69,5.69,0,0,0-3.68,1.3,9.77,9.77,0,0,0-2.69,3.69,22.93,22.93,0,0,0-1.65,5.82,48.08,48.08,0,0,0-.55,7.66,50.27,50.27,0,0,0,.52,7.69,20.1,20.1,0,0,0,1.62,5.67,8.77,8.77,0,0,0,2.83,3.51,7,7,0,0,0,4.12,1.2,15.09,15.09,0,0,0,4.52-.74,21.29,21.29,0,0,0,4.64-2.11v9.61a18,18,0,0,1-10.38,2.77,17.23,17.23,0,0,1-8.46-2,16.26,16.26,0,0,1-5.91-5.61,27.13,27.13,0,0,1-3.47-8.74,51.44,51.44,0,0,1-1.15-11.34A50.33,50.33,0,0,1,309,245.11a27,27,0,0,1,3.62-8.78,16.2,16.2,0,0,1,14.22-7.53,20.67,20.67,0,0,1,3.33.25,19,19,0,0,1,3,.76,20.51,20.51,0,0,1,2.77,1.2c.9.47,1.82,1,2.75,1.59l-3.51,8.83c-.56-.39-1.15-.78-1.75-1.16a16.94,16.94,0,0,0-1.87-1,11.94,11.94,0,0,0-2-.72A8.16,8.16,0,0,0,327.45,238.25Z"/><path class="cls-2" d="M368.89,241.5l.72,0a6.7,6.7,0,0,1,.77.08c.26,0,.49.07.7.11a1.6,1.6,0,0,1,.47.13V252.4a3.59,3.59,0,0,0-.58-.15l-.81-.13c-.28,0-.57-.06-.85-.07l-.72,0a7.74,7.74,0,0,0-3,.56,5.66,5.66,0,0,0-2.33,1.79,9.1,9.1,0,0,0-1.53,3.25,18.8,18.8,0,0,0-.56,4.93v21H350.45v-41.3h8.68l1.3,6.21h.37a28.8,28.8,0,0,1,1.45-2.89,9.87,9.87,0,0,1,1.72-2.19,6.79,6.79,0,0,1,4.92-1.91Z"/><path class="cls-2" d="M382.54,231.6a5.74,5.74,0,0,1,.54-2.64,4.92,4.92,0,0,1,1.36-1.7,5,5,0,0,1,1.85-.9,8.16,8.16,0,0,1,2-.26,8,8,0,0,1,1.94.26,4.87,4.87,0,0,1,3.21,2.6,5.74,5.74,0,0,1,.54,2.64,5.81,5.81,0,0,1-.54,2.63,4.89,4.89,0,0,1-1.37,1.71,5.16,5.16,0,0,1-1.84.93,7.64,7.64,0,0,1-1.94.28,7.75,7.75,0,0,1-2-.28,5.21,5.21,0,0,1-1.85-.93,4.87,4.87,0,0,1-1.36-1.71A5.81,5.81,0,0,1,382.54,231.6Zm11,52H382.84v-41.3h10.75Z"/><path class="cls-2" d="M421.87,284.32a16,16,0,0,1-6.35-1.22,12,12,0,0,1-4.84-3.79,18.57,18.57,0,0,1-3.09-6.57,37.18,37.18,0,0,1-1.09-9.59,41.72,41.72,0,0,1,1.09-10.32,18.13,18.13,0,0,1,3.07-6.67,11,11,0,0,1,4.77-3.58,17,17,0,0,1,6.18-1.08,18.17,18.17,0,0,1,5.06.74,18,18,0,0,1,4.55,2l-3,8.24a24.08,24.08,0,0,0-2.7-1.32,7.34,7.34,0,0,0-2.77-.57c-1.85,0-3.2,1-4.07,3.11s-1.29,5.19-1.29,9.38.43,7.19,1.29,9.16,2.22,3,4.07,3a11.64,11.64,0,0,0,3.93-.72,17.62,17.62,0,0,0,3.86-2v9.38a19.18,19.18,0,0,1-3.86,1.78A15.06,15.06,0,0,1,421.87,284.32Z"/><path class="cls-2" d="M453.11,261l2.7-5.61,7.65-13.08h11.19l-10.49,17.1,11.19,24.2H464.23L457,266.7,453.26,270v13.56H442.51V226.1h10.75v27.08c0,.47,0,1.13-.09,2s-.13,1.73-.21,2.59-.18,2.08-.25,3.21Z"/><path class="cls-2" d="M500.94,284.32a17.75,17.75,0,0,1-6.85-1.29,14.43,14.43,0,0,1-5.4-3.9,18.36,18.36,0,0,1-3.53-6.58,31.2,31.2,0,0,1-1.25-9.32,35.41,35.41,0,0,1,1.13-9.5,19.92,19.92,0,0,1,3.17-6.78,13.25,13.25,0,0,1,5-4.08,14.89,14.89,0,0,1,6.41-1.37,15,15,0,0,1,6.19,1.24,12.32,12.32,0,0,1,4.65,3.64,17.31,17.31,0,0,1,2.94,5.89,28.22,28.22,0,0,1,1,8v5.47H494.73q.12,5.2,2.2,7.7a7,7,0,0,0,5.67,2.49,15,15,0,0,0,2.79-.25A18.07,18.07,0,0,0,508,275a22.51,22.51,0,0,0,2.41-1c.76-.37,1.49-.75,2.18-1.15v8.57a19.44,19.44,0,0,1-5.29,2.16A25.29,25.29,0,0,1,500.94,284.32Zm-1.37-34.8a3.68,3.68,0,0,0-3.21,2.11q-1.26,2.1-1.48,6.61h9.31a24.19,24.19,0,0,0-.31-3.47A10.55,10.55,0,0,0,503,252a5.15,5.15,0,0,0-1.45-1.82A3.16,3.16,0,0,0,499.57,249.52Z"/><path class="cls-2" d="M541.86,275.34a9.08,9.08,0,0,0,2.4-.31,13.36,13.36,0,0,0,2.21-.83v8.38a9.13,9.13,0,0,1-3.06,1.28,18.73,18.73,0,0,1-4.43.46,13.59,13.59,0,0,1-4.81-.78,8.44,8.44,0,0,1-3.47-2.38,10.55,10.55,0,0,1-2.12-4.1,21.68,21.68,0,0,1-.72-6V250.74h-4V246l5.35-3.76,2.59-8.72h6.8v8.79h7.57v8.46h-7.57v20.72a4.18,4.18,0,0,0,.88,3A3.17,3.17,0,0,0,541.86,275.34Z"/><path class="cls-2" d="M334.67,357.74l-2.78-12.85h-14l-2.73,12.85h-11l13.15-54.23h15.07l13.15,54.23Zm-4.77-22.46-2.62-11.82c-.1-.44-.26-1.17-.48-2.18s-.46-2.12-.71-3.34-.47-2.45-.7-3.68-.38-2.28-.48-3.14q-.18,1.22-.48,2.88c-.19,1.11-.4,2.24-.63,3.4s-.44,2.27-.66,3.34-.41,2-.55,2.72L320,335.28Z"/><path class="cls-2" d="M369.49,358.48a16.06,16.06,0,0,1-6.36-1.22,12,12,0,0,1-4.83-3.79,18.57,18.57,0,0,1-3.09-6.57,36.75,36.75,0,0,1-1.09-9.59A41.24,41.24,0,0,1,355.21,327a18.13,18.13,0,0,1,3.07-6.67,10.9,10.9,0,0,1,4.76-3.58,17,17,0,0,1,6.19-1.08,18.17,18.17,0,0,1,5.06.74,17.89,17.89,0,0,1,4.54,2l-3,8.24a21.57,21.57,0,0,0-2.69-1.31,7.17,7.17,0,0,0-2.77-.58q-2.78,0-4.07,3.11T365,337.24q0,6.21,1.29,9.16a4.28,4.28,0,0,0,4.07,3,11.44,11.44,0,0,0,3.93-.72,17.42,17.42,0,0,0,3.86-2V356a19.18,19.18,0,0,1-3.86,1.78A15.06,15.06,0,0,1,369.49,358.48Z"/><path class="cls-2" d="M410.7,357.74l-2.21-5.61h-.23a20.69,20.69,0,0,1-2,2.86,10.39,10.39,0,0,1-2.25,2,9.31,9.31,0,0,1-2.72,1.14,14.42,14.42,0,0,1-3.49.37,9.71,9.71,0,0,1-3.95-.79,8.39,8.39,0,0,1-3.14-2.41,11.69,11.69,0,0,1-2.09-4.06,20.06,20.06,0,0,1-.75-5.82q0-6.57,3.56-9.69t10.73-3.46l5.54-.22v-3.1a5.11,5.11,0,0,0-1.23-3.77,4.74,4.74,0,0,0-3.46-1.22,11.69,11.69,0,0,0-4.41.89,36.52,36.52,0,0,0-4.12,1.95l-3.66-7.24a28.48,28.48,0,0,1,6.13-2.84,24.39,24.39,0,0,1,7.65-1.11,16.89,16.89,0,0,1,5.73.91,11.3,11.3,0,0,1,4.34,2.71,12.08,12.08,0,0,1,2.75,4.56,19.64,19.64,0,0,1,1,6.45v27.52Zm-3-19.13-2.8.14a8,8,0,0,0-2.87.59,5,5,0,0,0-1.86,1.39,5.43,5.43,0,0,0-1,2.07,10.55,10.55,0,0,0-.31,2.68,5.72,5.72,0,0,0,.92,3.69,3.09,3.09,0,0,0,2.48,1.07,4.66,4.66,0,0,0,2.16-.53,4.92,4.92,0,0,0,1.73-1.59,8.59,8.59,0,0,0,1.15-2.59,13.4,13.4,0,0,0,.42-3.53Z"/><path class="cls-2" d="M443.09,358.48a9.43,9.43,0,0,1-5-1.37,11.79,11.79,0,0,1-3.88-4,22.17,22.17,0,0,1-2.51-6.67,43,43,0,0,1-.89-9.24,43.55,43.55,0,0,1,.89-9.32,23.44,23.44,0,0,1,2.47-6.73A11.42,11.42,0,0,1,438,317a9.2,9.2,0,0,1,4.91-1.37,9.08,9.08,0,0,1,3,.47,7.82,7.82,0,0,1,2.36,1.29,9.65,9.65,0,0,1,1.83,1.94,22.27,22.27,0,0,1,1.46,2.36h.59c-.1-.93-.19-1.89-.26-2.88-.07-.84-.14-1.73-.18-2.7s-.08-1.84-.08-2.65V300.26H462.3v57.48h-7.87l-1.81-5.36h-.41a15.82,15.82,0,0,1-1.51,2.41,9.43,9.43,0,0,1-7.61,3.69Zm3.62-9a3.84,3.84,0,0,0,2.34-.68,4.61,4.61,0,0,0,1.5-2.07,13.54,13.54,0,0,0,.79-3.45,46.9,46.9,0,0,0,.28-4.84v-1.22c0-2-.07-3.77-.2-5.32a16.32,16.32,0,0,0-.76-3.9,5.34,5.34,0,0,0-1.53-2.38,3.79,3.79,0,0,0-2.5-.81c-1.67,0-2.9,1.06-3.67,3.19a28.38,28.38,0,0,0-1.17,9.29,26.7,26.7,0,0,0,1.19,9.15C443.76,348.49,445,349.5,446.71,349.5Z"/><path class="cls-2" d="M492.28,358.48a17.75,17.75,0,0,1-6.85-1.29,14.29,14.29,0,0,1-5.39-3.9,18.06,18.06,0,0,1-3.53-6.58,30.86,30.86,0,0,1-1.26-9.32,35.81,35.81,0,0,1,1.13-9.5,19.93,19.93,0,0,1,3.18-6.78,13.1,13.1,0,0,1,4.95-4.08,15.85,15.85,0,0,1,12.59-.13,12.35,12.35,0,0,1,4.66,3.64,17.3,17.3,0,0,1,2.93,5.89,28.22,28.22,0,0,1,1,8v5.47H486.08q.1,5.21,2.19,7.7a7,7,0,0,0,5.67,2.49,14.93,14.93,0,0,0,2.79-.25,18.56,18.56,0,0,0,2.61-.71,22.34,22.34,0,0,0,2.4-1c.76-.37,1.49-.75,2.18-1.15v8.57a19.25,19.25,0,0,1-5.28,2.16A25.31,25.31,0,0,1,492.28,358.48Zm-1.36-34.8a3.69,3.69,0,0,0-3.22,2.11q-1.26,2.1-1.48,6.61h9.31a22.83,22.83,0,0,0-.31-3.47,10.55,10.55,0,0,0-.85-2.76,5,5,0,0,0-1.44-1.82A3.18,3.18,0,0,0,490.92,323.68Z"/><path class="cls-2" d="M559.17,315.66a12,12,0,0,1,4.67.87,8.91,8.91,0,0,1,3.57,2.72A13.28,13.28,0,0,1,569.7,324a25.38,25.38,0,0,1,.81,6.85v26.93H559.76V333.62a17.13,17.13,0,0,0-1-6.71,3.38,3.38,0,0,0-3.24-2.23,4.26,4.26,0,0,0-2.77.89,5.84,5.84,0,0,0-1.75,2.62,18.26,18.26,0,0,0-.93,4.28,56.1,56.1,0,0,0-.27,5.84v19.43H539V333.62a16.92,16.92,0,0,0-1-6.71,3.37,3.37,0,0,0-3.23-2.23,4.24,4.24,0,0,0-2.77.89,6,6,0,0,0-1.77,2.62,16.44,16.44,0,0,0-.93,4.28q-.26,2.55-.26,5.84v19.43H518.31v-41.3h8.32l1.44,5.28h.59A10.88,10.88,0,0,1,530.5,319a10.39,10.39,0,0,1,2.35-1.88,9.87,9.87,0,0,1,2.7-1.09,11.7,11.7,0,0,1,2.9-.36,11.19,11.19,0,0,1,6.2,1.7,10.14,10.14,0,0,1,3.92,5.36H549a12.25,12.25,0,0,1,4.2-5.37A10.43,10.43,0,0,1,559.17,315.66Z"/><path class="cls-2" d="M580.18,316.44H591.3l5.61,23.05c.15.64.29,1.36.41,2.14s.24,1.58.35,2.37.2,1.53.26,2.23.11,1.29.16,1.76h.34c0-.54.07-1.2.15-2s.15-1.54.25-2.35.2-1.58.3-2.34.21-1.43.33-2l4.62-22.9h11.19l-11.71,43.63a39.59,39.59,0,0,1-2.57,7.18,17.76,17.76,0,0,1-3.39,4.94,12.17,12.17,0,0,1-4.42,2.82,16.22,16.22,0,0,1-5.65.91c-.49,0-1,0-1.52-.06s-1-.08-1.53-.15-1-.13-1.38-.2-.77-.15-1-.22v-8.94a14.52,14.52,0,0,0,1.5.33,11.18,11.18,0,0,0,1.9.15,5.64,5.64,0,0,0,4.27-1.68,10.8,10.8,0,0,0,2.42-4.67l.44-2.07Z"/><path d="M471.23,130.32c.24-7.68-4.41-11.4-6.3-12.48a4.76,4.76,0,0,1-2.07-3.51V102.85a4,4,0,0,1,.68-2.56c1.3-.81.94-2.79.94-2.79-.63-2.25-5.37-2.22-5.37-2.22L457.19,0l-.1,34.6L457,.08l-1.92,95.28s-4.74,0-5.37,2.22c0,0-.36,2,.95,2.79a4,4,0,0,1,.67,2.56v11.48a4.76,4.76,0,0,1-2.07,3.51c-1.89,1.08-6.54,4.8-6.3,12.48a12.74,12.74,0,0,0,9.72,11.28,5.36,5.36,0,0,1,.48,4.44s-3.6,2.52,0,5.52l-1.56,59.52s2.64-4,6-3.72v0c2.87.48,5,3.66,5,3.66L461,151.56c3.6-3,0-5.52,0-5.52a5.36,5.36,0,0,1,.48-4.44A12.74,12.74,0,0,0,471.23,130.32Z"/><ellipse cx="457.09" cy="37.04" rx="2.76" ry="0.96"/><ellipse cx="457.09" cy="57.38" rx="2.87" ry="0.96"/><ellipse cx="457.09" cy="84.28" rx="2.87" ry="0.96"/><ellipse cx="457.09" cy="88.68" rx="2.87" ry="1.51"/><ellipse cx="457.09" cy="92.64" rx="4.01" ry="1.51"/><path class="cls-3" d="M256.85,257.83a46.84,46.84,0,0,1,39.26-46.22c-19.94-61.18-77-105.36-144.26-105.36C68,106.25,0,174.88,0,259.55S68,412.84,151.85,412.84c68.47,0,126.35-45.76,145.29-108.64A46.85,46.85,0,0,1,256.85,257.83Z"/><path class="cls-4" d="M213.56,122.9,208,120a1.79,1.79,0,0,1-.78-2.42h0a1.8,1.8,0,0,1,2.42-.78l5.51,3.35a2.47,2.47,0,0,1,.85,1.94h0A1.8,1.8,0,0,1,213.56,122.9Z"/><rect class="cls-4" x="196.76" y="117.53" width="9.87" height="3.6" rx="1.8" transform="translate(34.89 -45.28) rotate(14.01)"/><rect class="cls-4" x="187" y="118.43" width="9.87" height="3.6" rx="1.8" transform="translate(26.47 -34.42) rotate(11)"/><rect class="cls-4" x="177.1" y="120.45" width="9.87" height="3.6" rx="1.8" transform="translate(9.08 -12.55) rotate(4.05)"/><rect class="cls-4" x="167.74" y="123.33" width="9.87" height="3.6" rx="1.8" transform="translate(-5.26 7.6) rotate(-2.48)"/><rect class="cls-4" x="158.47" y="127.42" width="9.87" height="3.6" rx="1.8" transform="translate(-23.06 36.32) rotate(-11.85)"/><rect class="cls-4" x="150.01" y="132.57" width="9.87" height="3.6" rx="1.8" transform="translate(-34.95 56.89) rotate(-18.74)"/><rect class="cls-4" x="142.27" y="139.05" width="9.87" height="3.6" rx="1.8" transform="translate(-48.25 83.35) rotate(-27.34)"/><rect class="cls-4" x="135.34" y="145.96" width="9.87" height="3.6" rx="1.8" transform="translate(-58.96 105.17) rotate(-34.42)"/><rect class="cls-4" x="129.04" y="153.7" width="9.87" height="3.6" rx="1.8" transform="translate(-68.29 120.6) rotate(-39.46)"/><rect class="cls-4" x="123.59" y="161.89" width="9.87" height="3.6" rx="1.8" transform="translate(-75.81 124.18) rotate(-40.92)"/><rect class="cls-4" x="118.78" y="170.61" width="9.87" height="3.6" rx="1.8" transform="translate(-85.67 137.98) rotate(-45)"/><rect class="cls-4" x="114.64" y="179.79" width="9.87" height="3.6" rx="1.8" transform="translate(-95.23 147.95) rotate(-47.74)"/><rect class="cls-4" x="111.31" y="189.07" width="9.87" height="3.6" rx="1.8" transform="translate(-106.22 169.59) rotate(-53.19)"/><rect class="cls-4" x="108.47" y="198.52" width="9.87" height="3.6" rx="1.8" transform="translate(-115.85 179.62) rotate(-55.33)"/><rect class="cls-4" x="105.86" y="208.12" width="9.87" height="3.6" rx="1.8" transform="translate(-125.98 193.28) rotate(-58.15)"/><rect class="cls-4" x="104.02" y="217.86" width="9.87" height="3.6" rx="1.8" transform="translate(-135.76 204.19) rotate(-60)"/><rect class="cls-4" x="102.17" y="227.97" width="9.87" height="3.6" rx="1.8" transform="translate(-146.02 215.94) rotate(-61.88)"/><rect class="cls-4" x="101.05" y="237.73" width="9.87" height="3.6" rx="1.8" transform="translate(-155.89 233.79) rotate(-64.88)"/><rect class="cls-4" x="100.23" y="247.64" width="9.87" height="3.6" rx="1.8" transform="translate(-165.51 253.53) rotate(-68.01)"/><rect class="cls-4" x="99.89" y="257.7" width="9.87" height="3.6" rx="1.8" transform="translate(-174.26 280.36) rotate(-72.28)"/><rect class="cls-4" x="100.23" y="267.6" width="9.87" height="3.6" rx="1.8" transform="translate(-181.8 305.21) rotate(-75.79)"/><rect class="cls-4" x="101.31" y="277.59" width="9.87" height="3.6" rx="1.8" transform="matrix(0.18, -0.98, 0.98, 0.18, -187.78, 333.24)"/><rect class="cls-4" x="102.57" y="287.31" width="9.87" height="3.6" rx="1.8" transform="translate(-193.54 356.32) rotate(-82.19)"/><rect class="cls-4" x="104.59" y="297.08" width="9.87" height="3.6" rx="1.8" transform="translate(-197.78 381.85) rotate(-84.98)"/><rect class="cls-4" x="106.98" y="306.71" width="9.87" height="3.6" rx="1.8" transform="translate(-200.6 408.67) rotate(-87.83)"/><rect class="cls-4" x="109.81" y="316.34" width="9.87" height="3.6" rx="1.8" transform="translate(-203.39 432.88) rotate(-90)"/><rect class="cls-4" x="112.96" y="325.65" width="9.87" height="3.6" rx="1.8" transform="translate(-203.64 460.62) rotate(-92.7)"/><rect class="cls-4" x="116.7" y="335.06" width="9.87" height="3.6" rx="1.8" transform="translate(-201.97 490.31) rotate(-95.52)"/><rect class="cls-4" x="121.06" y="344.15" width="9.87" height="3.6" rx="1.8" transform="translate(-193.7 528.55) rotate(-99.72)"/><rect class="cls-4" x="125.65" y="352.74" width="9.87" height="3.6" rx="1.8" transform="translate(-187.95 557.74) rotate(-102.31)"/><rect class="cls-4" x="130.94" y="361.3" width="9.87" height="3.6" rx="1.8" transform="translate(-170.79 600.28) rotate(-107.2)"/><rect class="cls-4" x="136.88" y="369.35" width="9.87" height="3.6" rx="1.8" transform="translate(-142.93 648.25) rotate(-113.31)"/><rect class="cls-4" x="143.36" y="376.64" width="9.87" height="3.6" rx="1.8" transform="translate(-105.29 696.09) rotate(-120)"/><rect class="cls-4" x="150.65" y="383.44" width="9.87" height="3.6" rx="1.8" transform="translate(-55.95 742.82) rotate(-127.4)"/><rect class="cls-4" x="158.75" y="389.15" width="9.87" height="3.6" rx="1.8" transform="translate(-19.64 773.09) rotate(-131.65)"/><rect class="cls-4" x="167.73" y="393.69" width="9.13" height="3.6" rx="1.8" transform="translate(14.48 796.97) rotate(-135)"/><rect class="cls-4" x="176.21" y="396.28" width="8.65" height="3.6" rx="1.8" transform="translate(52.71 816.07) rotate(-138.6)"/><rect class="cls-4" x="184.31" y="398.12" width="8.65" height="3.6" rx="1.8" transform="translate(133.54 838.66) rotate(-147.59)"/><rect class="cls-4" x="192.64" y="398.57" width="8.65" height="3.6" rx="1.8" transform="matrix(-0.94, -0.35, 0.35, -0.94, 241.29, 844.37)"/><path class="cls-4" d="M203.59,397a1.8,1.8,0,1,0-.84,3.5l4.91.63s1.73-.23,2-1.5c0,0,.11-.9-.55-1.11S203.59,397,203.59,397Z"/><rect class="cls-4" x="173.21" y="111.02" width="9.87" height="3.6" rx="1.8" transform="translate(8.41 -12.29) rotate(4.05)"/><rect class="cls-4" x="163.76" y="113.31" width="9.87" height="3.6" rx="1.8"/><rect class="cls-4" x="154.26" y="116.64" width="9.87" height="3.6" rx="1.8" transform="translate(-10.51 15.63) rotate(-5.44)"/><rect class="cls-4" x="145.09" y="120.92" width="9.87" height="3.6" rx="1.8" transform="translate(-17.59 25.39) rotate(-9.14)"/><rect class="cls-4" x="136.81" y="126.14" width="9.87" height="3.6" rx="1.8" transform="translate(-33.58 52.31) rotate(-18.74)"/><rect class="cls-4" x="129.04" y="132.57" width="9.87" height="3.6" rx="1.8" transform="translate(-46.75 76.55) rotate(-27.34)"/><rect class="cls-4" x="122.03" y="139.47" width="9.87" height="3.6" rx="1.8" transform="translate(-57.63 96.51) rotate(-34.42)"/><rect class="cls-4" x="115.52" y="147.29" width="9.87" height="3.6" rx="1.8" transform="translate(-67.3 110.55) rotate(-39.46)"/><rect class="cls-4" x="109.85" y="155.27" width="9.87" height="3.6" rx="1.8" transform="translate(-74.83 113.56) rotate(-40.92)"/><rect class="cls-4" x="105.17" y="163.83" width="9.87" height="3.6" rx="1.8" transform="translate(-84.87 126.37) rotate(-45)"/><rect class="cls-4" x="100.81" y="172.73" width="9.87" height="3.6" rx="1.8" transform="translate(-94.54 135.4) rotate(-47.74)"/><rect class="cls-4" x="97.13" y="182.21" width="9.87" height="3.6" rx="1.8" transform="translate(-106.41 155.48) rotate(-53.19)"/><rect class="cls-4" x="93.88" y="191.52" width="9.87" height="3.6" rx="1.8" transform="translate(-116.39 164.6) rotate(-55.33)"/><rect class="cls-4" x="91.4" y="201.06" width="9.87" height="3.6" rx="1.8" transform="translate(-126.81 177.65) rotate(-58.15)"/><rect class="cls-4" x="89.24" y="210.89" width="9.87" height="3.6" rx="1.8" transform="translate(-137.11 187.91) rotate(-60)"/><rect class="cls-4" x="87.49" y="220.69" width="9.87" height="3.6" rx="1.8" transform="translate(-147.36 199.14) rotate(-61.88)"/><rect class="cls-4" x="85.84" y="230.6" width="9.87" height="3.6" rx="1.8" transform="translate(-158.18 215.91) rotate(-64.88)"/><rect class="cls-4" x="85.01" y="240.68" width="9.87" height="3.6" rx="1.8" transform="translate(-168.57 235.07) rotate(-68.01)"/><rect class="cls-4" x="84.26" y="250.56" width="9.87" height="3.6" rx="1.8" transform="translate(-178.34 260.5) rotate(-72.28)"/><rect class="cls-4" x="84.6" y="260.46" width="9.87" height="3.6" rx="1.8" transform="translate(-186.68 284.68) rotate(-75.79)"/><rect class="cls-4" x="85.68" y="270.46" width="9.87" height="3.6" rx="1.8" transform="matrix(0.18, -0.98, 0.98, 0.18, -193.56, 312.02)"/><rect class="cls-4" x="86.94" y="280.18" width="9.87" height="3.6" rx="1.8" transform="translate(-199.98 334.67) rotate(-82.19)"/><rect class="cls-4" x="88.51" y="289.94" width="9.87" height="3.6" rx="1.8" transform="translate(-205.35 359.32) rotate(-84.98)"/><rect class="cls-4" x="90.43" y="300.02" width="9.87" height="3.6" rx="1.8" transform="translate(-209.85 385.71) rotate(-87.83)"/><rect class="cls-4" x="92.88" y="309.65" width="9.87" height="3.6" rx="1.8" transform="translate(-217.12 397.42) rotate(-87.83)"/><rect class="cls-4" x="95.41" y="319.06" width="9.87" height="3.6" rx="1.8" transform="translate(-224.08 409) rotate(-87.83)"/><rect class="cls-4" x="98.64" y="328.64" width="9.87" height="3.6" rx="1.8" transform="translate(-226.87 434.01) rotate(-90)"/><rect class="cls-4" x="102.35" y="337.94" width="9.87" height="3.6" rx="1.8" transform="translate(-227.03 462.89) rotate(-92.7)"/><rect class="cls-4" x="106.42" y="346.87" width="9.87" height="3.6" rx="1.8" transform="translate(-213.5 517.3) rotate(-99.72)"/><rect class="cls-4" x="111.1" y="355.92" width="9.87" height="3.6" rx="1.8" transform="translate(-208.71 547.37) rotate(-102.31)"/><rect class="cls-4" x="116.08" y="364.15" width="9.87" height="3.6" rx="1.8" transform="matrix(-0.25, -0.97, 0.97, -0.25, -202.03, 576.22)"/><rect class="cls-4" x="122.02" y="372.28" width="9.87" height="3.6" rx="1.8" transform="translate(-178.76 624.27) rotate(-110.55)"/><rect class="cls-4" x="128.37" y="379.81" width="9.87" height="3.6" rx="1.8" transform="translate(-151.19 668.77) rotate(-116.01)"/><rect class="cls-4" x="135.83" y="386.88" width="9.87" height="3.6" rx="1.8" transform="translate(-82.51 736.58) rotate(-127.4)"/><rect class="cls-4" x="143.66" y="392.65" width="9.79" height="3.6" rx="1.8" transform="translate(-47.44 767.61) rotate(-131.65)"/><rect class="cls-4" x="152.22" y="396.99" width="9.2" height="3.6" rx="1.8" transform="translate(-14.28 791.67) rotate(-135)"/><rect class="cls-4" x="85.09" y="123.8" width="8.34" height="3.79" rx="1.9" transform="translate(-60.77 90.23) rotate(-41.32)"/><rect class="cls-4" x="71.47" y="136.75" width="9.41" height="3.79" rx="1.9" transform="translate(-78.02 103.28) rotate(-48.3)"/><rect class="cls-4" x="60.85" y="150.93" width="9.41" height="3.79" rx="1.9" transform="translate(-99.57 133.18) rotate(-60)"/><rect class="cls-4" x="52.39" y="166.86" width="9.41" height="3.79" rx="1.9" transform="translate(-119.76 147.3) rotate(-64.39)"/><rect class="cls-4" x="45.46" y="183.73" width="9.41" height="3.79" rx="1.9" transform="translate(-141.76 173.87) rotate(-71.37)"/><rect class="cls-4" x="40.6" y="200.7" width="9.41" height="3.79" rx="1.9" transform="translate(-162.28 205.31) rotate(-78.15)"/><rect class="cls-4" x="37.36" y="218.29" width="9.41" height="3.79" rx="1.9" transform="translate(-182.09 222.78) rotate(-79.85)"/><rect class="cls-4" x="35.24" y="236.29" width="9.41" height="3.79" rx="1.9" transform="translate(-200.15 264.35) rotate(-86.7)"/><rect class="cls-4" x="34.61" y="254.2" width="9.41" height="3.79" rx="1.9" transform="translate(-216.79 295.41) rotate(-90)"/><rect class="cls-4" x="35.51" y="272.02" width="9.41" height="3.79" rx="1.9" transform="translate(-227.66 343.86) rotate(-96.28)"/><rect class="cls-4" x="37.48" y="289.99" width="9.41" height="3.79" rx="1.9" transform="translate(-238.92 381.1) rotate(-99.38)"/><rect class="cls-4" x="40.38" y="307.52" width="9.41" height="3.79" rx="1.9" transform="translate(-246.15 423.24) rotate(-103.06)"/><rect class="cls-4" x="44.61" y="324.89" width="9.41" height="3.79" rx="1.9" transform="translate(-248.11 470.88) rotate(-107.27)"/><rect class="cls-4" x="50.46" y="342.21" width="9.41" height="3.79" rx="1.9" transform="translate(-243.63 523.49) rotate(-111.87)"/><rect class="cls-4" x="58.02" y="358.23" width="9.41" height="3.79" rx="1.9" transform="translate(-200.49 613.8) rotate(-124.06)"/><rect class="cls-4" x="68.16" y="373.23" width="9.41" height="3.79" rx="1.9" transform="translate(-175.62 665.44) rotate(-128.45)"/><rect class="cls-4" x="80.17" y="386.23" width="9.41" height="3.79" rx="1.9" transform="translate(-129.55 722.6) rotate(-135)"/><rect class="cls-4" x="65.64" y="381.97" width="9.85" height="3.79" rx="1.9" transform="translate(-243.16 616.04) rotate(-116.09)"/><rect class="cls-4" x="58.85" y="374.77" width="9.85" height="3.79" rx="1.9" transform="translate(-256.36 585.12) rotate(-113.46)"/><rect class="cls-4" x="52.46" y="366.98" width="9.85" height="3.79" rx="1.9" transform="translate(-272.59 543.48) rotate(-109.04)"/><rect class="cls-4" x="46.7" y="358.79" width="9.85" height="3.79" rx="1.9" transform="translate(-280.37 510.82) rotate(-106.19)"/><rect class="cls-4" x="41.75" y="350.11" width="9.85" height="3.79" rx="1.9" transform="translate(-290.63 462.96) rotate(-100.66)"/><rect class="cls-4" x="37.16" y="341.42" width="9.85" height="3.79" rx="1.9" transform="translate(-293.32 427.82) rotate(-97.15)"/><rect class="cls-4" x="33.38" y="332.06" width="9.85" height="3.79" rx="1.9" transform="translate(-295.66 372.26) rotate(-90)"/><rect class="cls-4" x="29.82" y="323.11" width="9.85" height="3.79" rx="1.9" transform="translate(-290.26 359.75) rotate(-90)"/><rect class="cls-4" x="27.08" y="313.57" width="9.85" height="3.79" rx="1.9" transform="translate(-284.63 332.47) rotate(-87.28)"/><rect class="cls-4" x="25.04" y="303.9" width="9.85" height="3.79" rx="1.9" transform="translate(-277.23 299.3) rotate(-83.19)"/><rect class="cls-4" x="23.28" y="293.77" width="9.85" height="3.79" rx="1.9" transform="translate(-268.17 276.28) rotate(-80.81)"/><rect class="cls-4" x="21.98" y="284.14" width="9.85" height="3.79" rx="1.9" transform="translate(-258.09 249.64) rotate(-77.35)"/><rect class="cls-4" x="21.17" y="274.06" width="9.85" height="3.79" rx="1.9" transform="translate(-247.22 229.76) rotate(-75)"/><rect class="cls-4" x="20.81" y="264.07" width="9.85" height="3.79" rx="1.9" transform="translate(-235.67 210.55) rotate(-72.5)"/><rect class="cls-4" x="20.81" y="254.12" width="9.85" height="3.79" rx="1.9" transform="translate(-223.94 193.8) rotate(-70.27)"/><rect class="cls-4" x="21.35" y="244.13" width="9.85" height="3.79" rx="1.9" transform="translate(-210.27 173.45) rotate(-66.85)"/><rect class="cls-4" x="21.89" y="234.28" width="9.85" height="3.79" rx="1.9" transform="translate(-197.68 158.08) rotate(-64.34)"/><rect class="cls-4" x="23.28" y="224.24" width="9.85" height="3.79" rx="1.9" transform="translate(-181.74 137.5) rotate(-60)"/><rect class="cls-4" x="24.81" y="214.52" width="9.85" height="3.79" rx="1.9" transform="translate(-168.68 125.03) rotate(-57.45)"/><rect class="cls-4" x="26.75" y="204.67" width="9.85" height="3.79" rx="1.9" transform="translate(-154.5 111.63) rotate(-54.27)"/><rect class="cls-4" x="29.04" y="195.17" width="9.85" height="3.79" rx="1.9" transform="translate(-142.67 103.31) rotate(-52.26)"/><rect class="cls-4" x="32.06" y="185.74" width="9.85" height="3.79" rx="1.9" transform="translate(-134.04 102.03) rotate(-52.26)"/><rect class="cls-4" x="35.84" y="176.31" width="9.85" height="3.79" rx="1.9" transform="translate(-120.03 91.23) rotate(-48.71)"/><rect class="cls-4" x="39.73" y="167.08" width="9.85" height="3.79" rx="1.9" transform="translate(-106.41 81.07) rotate(-45)"/><rect class="cls-4" x="44.55" y="158.49" width="9.85" height="3.79" rx="1.9" transform="translate(-95.47 75.75) rotate(-42.58)"/><rect class="cls-4" x="31.99" y="161.28" width="9.85" height="3.79" rx="1.9" transform="translate(-100.67 67.99) rotate(-42.58)"/><rect class="cls-4" x="27.22" y="169.83" width="9.85" height="3.79" rx="1.9" transform="translate(-112.01 73.03) rotate(-45)"/><rect class="cls-4" x="23.18" y="178.87" width="9.85" height="3.79" rx="1.9" transform="translate(-126.26 82.59) rotate(-48.71)"/><rect class="cls-4" x="19.28" y="188.05" width="9.85" height="3.79" rx="1.9" transform="translate(-140.82 92.83) rotate(-52.26)"/><rect class="cls-4" x="16.18" y="197.63" width="9.85" height="3.79" rx="1.9" transform="translate(-153.19 100.13) rotate(-54.27)"/><rect class="cls-4" x="13.39" y="207.23" width="9.85" height="3.79" rx="1.9" transform="translate(-167.81 112.04) rotate(-57.45)"/><rect class="cls-4" x="11.28" y="216.86" width="9.85" height="3.79" rx="1.9" transform="translate(-181.35 123.41) rotate(-60)"/><rect class="cls-4" x="9.75" y="226.67" width="9.85" height="3.79" rx="1.9" transform="translate(-197.71 142.82) rotate(-64.34)"/><rect class="cls-4" x="8.58" y="236.59" width="9.85" height="3.79" rx="1.9" transform="translate(-211.09 157.13) rotate(-66.85)"/><rect class="cls-4" x="8.04" y="246.4" width="9.85" height="3.79" rx="1.9" transform="matrix(0.34, -0.94, 0.94, 0.34, -225.13, 176.67)"/><rect class="cls-4" x="7.77" y="256.61" width="9.85" height="3.79" rx="1.9" transform="translate(-237.67 192.89) rotate(-72.5)"/><rect class="cls-4" x="8.04" y="266.42" width="9.85" height="3.79" rx="1.9" transform="translate(-249.58 211.41) rotate(-75)"/><rect class="cls-4" x="8.57" y="276.38" width="10.08" height="3.79" rx="1.9" transform="translate(-260.9 230.61) rotate(-77.35)"/><rect class="cls-4" x="9.42" y="286.33" width="10.08" height="3.79" rx="1.9" transform="translate(-273.45 268.43) rotate(-83.19)"/><rect class="cls-4" x="11.09" y="296.32" width="10.08" height="3.79" rx="1.9" transform="translate(-280.83 266.5) rotate(-80.81)"/><rect class="cls-4" x="12.71" y="305.99" width="10.08" height="3.79" rx="1.9" transform="translate(-290.64 311.01) rotate(-87.28)"/><rect class="cls-4" x="15.27" y="315.76" width="10.08" height="3.79" rx="1.9" transform="translate(-297.95 322.87) rotate(-87.28)"/><rect class="cls-4" x="18.2" y="325.3" width="10.08" height="3.79" rx="1.9" transform="translate(-303.96 350.43) rotate(-90)"/><rect class="cls-4" x="21.8" y="334.66" width="10.08" height="3.79" rx="1.9" transform="translate(-303.76 405.09) rotate(-97.15)"/><rect class="cls-4" x="26.21" y="343.48" width="10.08" height="3.79" rx="1.9" transform="translate(-302.39 439.95) rotate(-100.66)"/><rect class="cls-4" x="49.99" y="149.99" width="9.85" height="3.79" rx="1.9" transform="translate(-83.41 68.52) rotate(-39.05)"/><rect class="cls-4" x="55.8" y="142.02" width="9.85" height="3.79" rx="1.9" transform="translate(-70.42 59.05) rotate(-34.21)"/><rect class="cls-4" x="62.55" y="134.6" width="9.85" height="3.79" rx="1.9" transform="translate(-54.39 45.21) rotate(-26.86)"/><rect class="cls-4" x="160.67" y="400.46" width="8.65" height="3.6" rx="1.8" transform="translate(22.74 813.11) rotate(-138.6)"/><rect class="cls-4" x="169.31" y="402.65" width="8.65" height="3.6" rx="1.8" transform="translate(64.96 830.96) rotate(-142.47)"/><rect class="cls-4" x="178.1" y="403.49" width="8.88" height="3.6" rx="1.8" transform="translate(211.63 848.84) rotate(-159.51)"/><path class="cls-4" d="M87.75,398s-2.43.4-3.74-.41-2.56-1.93-2.16-3c0,0,1.44-1.66,2.43-.72C84.28,393.91,87.79,397.56,87.75,398Z"/><path class="cls-4" d="M77.71,387.3l2.93,4.79s.63,1.19-.23,1.46c0,0-.94.5-2.7-1.12a17.8,17.8,0,0,1-3-3.92s-.63-1.44,0-1.93c0,0,1.39-1,2-.59A2,2,0,0,1,77.71,387.3Z"/><path class="cls-4" d="M77.71,126.66a1.66,1.66,0,0,1,1.44,1s.18,1.49-.72,2-5.67,2.47-5.67,2.47-1.62.77-2.25,0c0,0-1.08-1.08-.4-1.84C70.11,130.35,73.89,127,77.71,126.66Z"/><path class="cls-4" d="M86.82,120.39s.76.13.76.76a2.31,2.31,0,0,1-1.44,2c-.9.22-6.12,1.89-6.12,1.89a.73.73,0,0,1-.48-1.08s-.11-1.49,2.51-3A10.48,10.48,0,0,1,86.82,120.39Z"/><path class="cls-4" d="M90.21,118.73s3.24,0,4-.63,1.35-1.58.63-1.89a4,4,0,0,0-4,1.48S89.81,118.74,90.21,118.73Z"/><path class="cls-4" d="M105.66,113.47s1.89,0,1.89.63-1.62,1.76-2.25,2.12-3.24,2.08-3.24,2.08-1.31.86-2.21,0-.76-1.87-.27-2.22S103.27,113.47,105.66,113.47Z"/><path class="cls-4" d="M42.74,151.75s2.8-1.36,3.52,0c0,0,.81,1.14-.86,2.45S41,157.89,41,157.89s-1.17.9-1.75,0a4.07,4.07,0,0,1,1.08-3.47A29.92,29.92,0,0,1,42.74,151.75Z"/><path class="cls-4" d="M37.75,359s-2.47-1.76-3-2.93l-1-5s.09-1.35.94-1.62c0,0,1.44-.36,1.85.27a8.08,8.08,0,0,1,.9,2.32c.36,1.5,1.21,5.1,1.17,5.6A1.81,1.81,0,0,1,37.75,359Z"/><path class="cls-4" d="M39,360.13s-.32-1.54.27-1.81c0,0,1.8-1.31,2.47,0,0,0,1.35,4.09,1.4,4.86,0,0,.54,1.3-.32,1.8a1.19,1.19,0,0,1-1.53,0s-1.8-1.26-2-2.61S39,360.13,39,360.13Z"/><path class="cls-4" d="M47.11,366.19l.59,2.34s.58,1.4-.3,1.53a3.34,3.34,0,0,1-3.21-1.93,3,3,0,0,1,0-2.57s1.44-1.35,2.25-.58A6.43,6.43,0,0,1,47.11,366.19Z"/><path class="cls-5" d="M217.54,397.36s-3,3.06-6.07,2.75a1.74,1.74,0,0,1-1-2,1.85,1.85,0,0,1,2.11-1.1C214.35,397.14,217.79,397.12,217.54,397.36Z"/><path class="cls-4" d="M192.87,404.93s1.44.37,1.17.84a2.41,2.41,0,0,1-2.64,1.82c-2.13-.09-3-.55-3.78-1.33s.42-2.18,1-2.33S192.87,404.93,192.87,404.93Z"/><rect class="cls-4" x="95.71" y="397.08" width="9.41" height="3.79" rx="1.9" transform="translate(-32.62 788.29) rotate(-147.01)"/><path class="cls-4" d="M192.87,112.66a.68.68,0,0,1-.15.84c-.42.36-1.2.72-3.24.15a48.87,48.87,0,0,0-4.83-1s-1.08,0-1.41-1.59,2.16-1.95,2.16-1.95a10.87,10.87,0,0,1,5.55,1.62C193.35,112.39,192.87,112.66,192.87,112.66Z"/><path class="cls-4" d="M165.72,108s-3.54-.3-4.47.15-2.13.88-2.55-.25c0,0-.93-1.13-.3-1.73s3.69-1.8,5.7-1S166.5,107.77,165.72,108Z"/><path class="cls-6" d="M104.9,399.7l.27.22c19.77,15,44.2,12.71,43.13,12.71a89.85,89.85,0,0,1-23.39-13.87Z"/><path class="cls-7" d="M114.09,388.76l-19.68.82A144.15,144.15,0,0,0,104.9,399.7l20-.94A113.68,113.68,0,0,1,114.09,388.76Z"/><path class="cls-8" d="M78.44,369a125.87,125.87,0,0,0,16,20.61l19.68-.82A145.62,145.62,0,0,1,98.64,369.4Z"/><path class="cls-9" d="M74.42,361.51a77.74,77.74,0,0,0,4,7.46l20.2.43a171.89,171.89,0,0,1-11.88-20.69l-19.31-1.65C69.47,351.22,71.74,355.77,74.42,361.51Z"/><path class="cls-10" d="M67.45,347.06l19.31,1.65c-2.66-5.49-4-9-4-9-2.12-5.07-4-10.16-5.61-15.21l-20-3.34A151.18,151.18,0,0,0,67.45,347.06Z"/><path class="cls-11" d="M53.64,308c1.24,5.09,2.4,9.4,3.53,13.2l20,3.34c-2.23-6.89-4-13.72-5.5-20.35l-19.35-2.27C53.12,305.73,53.64,308,53.64,308Z"/><path class="cls-12" d="M52.34,301.91l19.35,2.27C70,296.6,68.8,289.29,67.92,282.4l-19.31-1.95C49.89,289.27,51.33,296.93,52.34,301.91Z"/><path class="cls-13" d="M48.61,280.45l19.31,1.95c-.9-7.07-1.45-13.68-1.76-19.63L46.37,261C46.92,267.69,47.72,274.35,48.61,280.45Z"/><path class="cls-14" d="M46.37,261l19.79,1.81c-.36-7-.4-13-.31-17.86l-20.12-3.3A189.58,189.58,0,0,0,46.37,261Z"/><path class="cls-15" d="M45.73,241.61l20.12,3.3c.14-7.87.63-12.51.63-12.51.07-.73.15-1.42.23-2.13l-19.77-2A93,93,0,0,0,45.73,241.61Z"/><path class="cls-16" d="M47,227.59c0,.21-.07.44-.1.65l19.77,2c.68-6.35,1.45-12,2.32-17.24L50.27,209C47.85,220,47,227.59,47,227.59Z"/><path class="cls-17" d="M50.27,209,69,213a164.21,164.21,0,0,1,3.83-17.55l-18.18-3.42C52.83,198.17,51.37,204,50.27,209Z"/><path class="cls-18" d="M54.68,192.06l18.18,3.42a120.2,120.2,0,0,1,5.38-15.26l-18.17-3.6C58,181.86,56.18,187.08,54.68,192.06Z"/><path class="cls-19" d="M60.07,176.62l18.17,3.6a141.09,141.09,0,0,1,6.43-12.92l-18.46-4.12C63.92,167.59,61.87,172.11,60.07,176.62Z"/><path class="cls-20" d="M66.21,163.18l18.46,4.12c2.6-4.68,5.54-9.5,8.87-14.78l-18.49-3.73A111.2,111.2,0,0,0,66.21,163.18Z"/><path class="cls-21" d="M77.55,145.51c-.86,1.07-1.69,2.17-2.5,3.28l18.49,3.73c.71-1.12,1.43-2.26,2.18-3.43a76.41,76.41,0,0,1,7.7-10.06l-16.24-4.16C81.32,140.91,77.55,145.51,77.55,145.51Z"/><path class="cls-22" d="M87.18,134.87,103.42,139a117.38,117.38,0,0,1,16.51-14.93l-16.07-4.44A172,172,0,0,0,87.18,134.87Z"/><path class="cls-23" d="M128.4,107.69c-8,1.39-16.58,5.72-24.54,12l16.07,4.44c15.18-15.53,30.88-17.85,30.88-17.85C146.24,103.94,128.4,107.69,128.4,107.69Z"/><path class="cls-4" d="M120.92,407.05a2.5,2.5,0,0,1-2,1.22c-1.28-.09-5.42-1.22-6.68-2.93,0,0,.68-1.93,1.85-1.44S120.65,406.24,120.92,407.05Z"/><rect class="cls-4" x="143.97" y="405.93" width="9.75" height="3.79" rx="1.9" transform="translate(148.14 841.96) rotate(-159.86)"/><rect class="cls-4" x="127.59" y="398.59" width="9.75" height="3.79" rx="1.9" transform="translate(31.9 810.15) rotate(-147.91)"/><rect class="cls-4" x="113.04" y="388.65" width="9.66" height="3.79" rx="1.9" transform="translate(-58.74 758.28) rotate(-137.55)"/><rect class="cls-4" x="100.34" y="376.01" width="9.66" height="3.79" rx="1.9" transform="translate(-103.31 710.2) rotate(-132.34)"/><rect class="cls-4" x="90.04" y="361.3" width="9.66" height="3.79" rx="1.9" transform="translate(-152.89 645.2) rotate(-124.06)"/><rect class="cls-4" x="81.66" y="345.31" width="9.66" height="3.79" rx="1.9" transform="matrix(-0.43, -0.9, 0.9, -0.43, -190.46, 573.77)"/><rect class="cls-4" x="75.55" y="328.61" width="9.66" height="3.79" rx="1.9" transform="translate(-204.52 516.33) rotate(-109.45)"/><rect class="cls-4" x="70.92" y="311.28" width="10.1" height="3.79" rx="1.9" transform="translate(-211.95 457.92) rotate(-103.06)"/><rect class="cls-4" x="67.77" y="293.91" width="10.1" height="3.79" rx="1.9" transform="translate(-207.15 415.87) rotate(-99.38)"/><rect class="cls-4" x="65.93" y="275.82" width="10.1" height="3.79" rx="1.9" transform="translate(-200.42 369.94) rotate(-94.43)"/><rect class="cls-4" x="64.81" y="257.91" width="10.1" height="3.79" rx="1.9" transform="translate(-189.94 329.67) rotate(-90)"/><rect class="cls-4" x="64.81" y="240.04" width="10.1" height="3.79" rx="1.9" transform="translate(-172.08 311.8) rotate(-90)"/><rect class="cls-4" x="65.88" y="222.19" width="10.1" height="3.79" rx="1.9" transform="translate(-159.03 272.74) rotate(-84.38)"/><rect class="cls-4" x="68.45" y="204.28" width="10.1" height="3.79" rx="1.9" transform="translate(-143.29 236.44) rotate(-78.33)"/><rect class="cls-4" x="72.5" y="187.09" width="10.1" height="3.79" rx="1.9" transform="translate(-125.42 212.1) rotate(-74.19)"/><rect class="cls-4" x="78.46" y="170.15" width="10.1" height="3.79" rx="1.9" transform="translate(-107.63 178.53) rotate(-66.05)"/><rect class="cls-4" x="86.8" y="154.02" width="10.1" height="3.79" rx="1.9" transform="matrix(0.55, -0.84, 0.84, 0.55, -88.91, 147.41)"/><rect class="cls-4" x="97.24" y="139.37" width="10.1" height="3.79" rx="1.9" transform="translate(-69.93 113.71) rotate(-45)"/><rect class="cls-4" x="109.64" y="126.97" width="10.1" height="3.79" rx="1.9" transform="translate(-55.76 102.27) rotate(-39.46)"/><rect class="cls-4" x="124.31" y="116.4" width="10.1" height="3.79" rx="1.9" transform="translate(-44.22 93.84) rotate(-34.42)"/><rect class="cls-4" x="140.48" y="108.66" width="10.1" height="3.79" rx="1.9" transform="translate(-31.47 65.04) rotate(-22.8)"/><path class="cls-24" d="M138.22,107.69c-5.73.85-20.68,4.24-35.08,17.32a132.07,132.07,0,0,0-25.91,32.21C70.6,168.92,64.74,181,58.37,207.65c0,0-4.72,21.2-5.5,40.38-.46,11.38-1.36,16.74,3.84,45.4,3.06,16.85,6,33.68,21.58,65,9.37,18.87,36.29,47.53,62.86,53.63l-8.39-1.38c-9.3-1.86-13.26-4-20.33-8.41-6.59-4.08-15.76-11.53-24.66-23.22-6.11-8-11.79-17.76-19.62-35.19-4.38-9.75-9.36-25-12.64-43.53-1.83-10.37-5.4-31-5.4-41.79a285.45,285.45,0,0,1,3.36-41.14c1.64-9.92,6.77-30.76,13.37-45.22,4.52-9.88,10.57-22.73,22.81-36.65,10.35-11.77,21.48-23.53,48.5-27.77"/><path class="cls-25" d="M148.2,105.61s-.21.07-.25.08c-.44.15-6.15,1.1-10.17,2.23-8.33,2.35-22.24,7.6-33.26,18.38-7.54,7.37-19,18.19-26.28,33C72.33,171.39,65.16,183.37,60,209.92c0,0-4.27,21.17-5,40.35-.46,11.38-1.36,16.74,3.84,45.4,3.05,16.85,7.41,33.12,23,64.46,9.37,18.87,32.7,46.5,64.86,52.62a68.29,68.29,0,0,1-8.89-.42,37.56,37.56,0,0,1-5-1.63c-2.49-.7-13.91-5.73-19-9.47-6.25-4.59-13.9-9.31-22.8-21-6.11-8-14.15-22.1-19-33.17-4.49-10.25-10.89-26.95-14.37-44.47-2.05-10.33-5.4-31-5.4-41.79a285.45,285.45,0,0,1,3.36-41.14C57.2,209.74,61.8,189,68.4,174.53c4.51-9.88,10.08-23.38,22.32-37.3,9.7-11,22.38-24.54,46.72-29.7a97,97,0,0,1,10.23-2l.22,0Z"/><path class="cls-26" d="M267.62,257.87a35.64,35.64,0,0,1,31.59-35.4q-.78-3.15-1.69-6.27a42.56,42.56,0,0,0,.66,84.31c.65-2.37,1.26-4.75,1.8-7.16A35.63,35.63,0,0,1,267.62,257.87Z"/></g></g></g></svg>