<?xml version="1.0" standalone="no"?>
<!DOCTYPE svg PUBLIC "-//W3C//DTD SVG 20010904//EN"
 "http://www.w3.org/TR/2001/REC-SVG-20010904/DTD/svg10.dtd">
<svg version="1.0" xmlns="http://www.w3.org/2000/svg"
 width="1230.000000pt" height="1230.000000pt" viewBox="0 0 1230.000000 1230.000000"
 preserveAspectRatio="xMidYMid meet">
<metadata>
Created by potrace 1.11, written by Peter Selinger 2001-2013
</metadata>
<g transform="translate(0.000000,1230.000000) scale(0.100000,-0.100000)"
fill="#000000" stroke="none">
<path d="M9135 10111 c-3 -5 -2 -12 3 -15 5 -3 9 1 9 9 0 17 -3 19 -12 6z"/>
<path d="M9133 9962 c-7 -410 -7 -412 -25 -418 -23 -7 -23 -21 0 -33 14 -7 17
-20 15 -63 -2 -29 -4 -110 -5 -180 -2 -96 -6 -128 -15 -128 -17 0 -17 -18 0
-34 8 -9 12 -37 11 -82 -1 -38 -3 -145 -5 -239 -2 -95 -7 -178 -13 -189 -8
-14 -8 -20 1 -23 15 -5 7 -53 -11 -66 -8 -6 -7 -10 2 -14 20 -8 14 -40 -10
-58 l-23 -16 23 -16 c29 -20 28 -43 -2 -43 -38 0 -74 -17 -81 -39 -3 -11 2
-34 13 -54 16 -30 18 -55 17 -175 -2 -140 -2 -141 -29 -164 -93 -79 -120 -120
-134 -209 -17 -108 34 -203 137 -258 34 -18 61 -35 62 -39 6 -44 3 -67 -13
-87 -22 -28 -23 -58 -3 -79 14 -13 15 -50 10 -278 -11 -438 -14 -553 -15 -553
-1 0 -3 -82 -5 -183 l-3 -184 22 21 c58 54 114 56 168 4 l27 -26 -4 199 c-3
109 -7 273 -10 364 -14 472 -15 628 -2 638 14 12 22 72 9 72 -14 0 -32 47 -27
69 6 32 13 39 58 60 113 51 169 167 142 292 -11 49 -45 100 -104 155 l-54 50
-1 143 c-2 113 1 147 13 164 36 52 15 91 -54 100 -19 2 -31 10 -33 22 -2 9 0
15 5 12 15 -9 34 9 27 26 -3 9 -15 19 -26 22 -17 6 -18 9 -5 29 12 18 13 26 2
46 -9 17 -10 30 -3 43 5 10 6 26 2 35 -4 9 -8 82 -10 162 -2 80 -5 191 -7 247
-2 95 -1 102 18 107 19 5 19 6 0 20 -17 12 -19 28 -22 127 -1 63 -3 115 -4
117 -1 2 -1 45 0 102 1 34 4 40 22 40 18 0 19 2 9 15 -7 8 -16 12 -21 9 -5 -3
-9 -2 -10 3 -2 17 -7 204 -10 351 -2 170 -13 213 -16 64z"/>
<path d="M3215 8167 c-16 -5 -34 -13 -40 -16 -12 -9 -138 -6 -185 4 -39 8 -82
8 -182 -1 -71 -6 -76 -7 -123 -17 -16 -3 -48 -9 -70 -12 -119 -16 -487 -114
-610 -162 -56 -21 -91 -31 -93 -24 -6 19 -46 11 -77 -14 -19 -16 -25 -25 -15
-25 35 -1 -49 -34 -92 -36 -66 -2 -106 -21 -125 -57 -21 -41 -30 -49 -80 -71
-24 -11 -43 -23 -43 -28 0 -4 -3 -7 -7 -6 -9 3 -136 -82 -141 -94 -2 -4 -10
-8 -18 -8 -8 0 -14 -4 -14 -10 0 -5 -4 -10 -10 -10 -5 0 -18 -6 -27 -14 -10
-8 -56 -45 -103 -82 -84 -68 -132 -110 -217 -191 -25 -24 -49 -43 -54 -43 -14
0 -89 -79 -89 -93 0 -7 -13 -25 -28 -42 -15 -16 -45 -52 -67 -80 -22 -27 -42
-52 -45 -55 -26 -23 -192 -273 -253 -380 -34 -58 -81 -153 -82 -162 0 -4 -6
-13 -12 -20 -7 -6 -13 -15 -13 -19 0 -4 -13 -36 -28 -71 -16 -35 -35 -79 -42
-98 -7 -19 -19 -48 -25 -65 -21 -50 -84 -243 -90 -275 -2 -8 -8 -33 -13 -55
-6 -22 -13 -51 -16 -65 -3 -14 -7 -36 -10 -50 -7 -30 -24 -123 -30 -165 -2
-16 -7 -50 -11 -73 -26 -164 -25 -680 1 -807 3 -11 7 -42 10 -70 3 -27 8 -53
10 -57 3 -4 7 -26 10 -50 4 -24 10 -50 15 -59 4 -9 6 -18 4 -21 -2 -2 5 -37
16 -78 10 -41 21 -86 24 -100 3 -14 13 -43 21 -65 9 -22 18 -50 20 -62 2 -12
9 -35 16 -50 6 -16 12 -32 13 -38 16 -63 183 -420 230 -489 14 -20 25 -39 25
-42 0 -21 201 -299 298 -413 20 -24 48 -59 61 -77 13 -19 29 -34 36 -34 6 0
22 -18 35 -39 14 -22 36 -46 49 -53 13 -7 42 -31 66 -53 76 -72 151 -133 310
-253 67 -50 319 -202 336 -202 5 0 9 -4 9 -10 0 -14 48 -43 73 -44 12 -1 38
-9 57 -18 63 -29 176 -76 235 -98 39 -14 120 -42 130 -44 6 -2 30 -9 55 -16
25 -7 50 -14 55 -16 6 -1 39 -9 75 -18 36 -9 76 -18 90 -21 50 -10 146 -27
170 -31 14 -2 41 -7 60 -10 85 -15 149 -18 360 -18 235 0 390 5 390 14 0 3 12
5 28 6 15 0 44 4 65 7 20 4 54 10 75 13 20 3 44 7 52 9 8 2 31 7 50 10 19 3
59 13 88 22 30 8 64 16 75 18 12 1 58 15 101 30 43 15 84 28 90 30 6 1 20 5
31 10 11 4 61 23 110 42 85 32 314 141 325 154 3 3 30 19 60 35 125 66 364
239 504 365 109 98 293 291 334 350 9 13 29 38 44 54 15 17 28 36 28 43 0 6 3
12 8 12 4 0 27 30 52 68 25 37 48 69 51 72 3 3 19 28 35 55 15 28 39 65 51 84
57 84 220 442 256 561 6 19 11 37 12 40 1 3 5 13 9 23 12 25 1 44 -26 45 -39
0 -188 52 -264 92 -180 94 -332 251 -408 421 -16 35 -32 71 -36 80 -10 18 -33
96 -36 119 -1 8 -6 33 -10 55 -9 47 -10 254 -1 307 7 43 25 116 34 138 4 8 7
17 8 20 56 162 174 325 308 425 53 41 161 108 177 111 3 0 19 6 35 13 38 16
128 48 138 49 29 2 67 15 67 22 0 12 -33 102 -72 200 -37 91 -160 344 -170
348 -5 2 -8 7 -8 12 0 17 -173 282 -232 355 -5 6 -18 21 -29 35 -11 14 -33 40
-47 59 -44 54 -217 236 -279 291 -101 91 -286 240 -298 240 -3 0 -11 5 -18 10
-48 41 -62 50 -73 50 -7 0 -14 4 -16 9 -5 13 -124 84 -276 163 -75 39 -150 80
-165 91 -15 10 -42 21 -60 23 -26 2 -154 43 -227 71 -18 8 -15 7 -67 21 -23 7
-48 19 -56 26 -20 20 -84 36 -137 34 -41 -2 -60 0 -140 17 -14 3 -43 7 -65 10
-126 14 -152 19 -166 32 -26 22 -71 31 -104 20z"/>
<path d="M8573 7202 l-23 -3 0 -573 0 -572 105 0 c66 0 105 4 106 11 1 5 2
261 3 569 1 434 -2 560 -11 563 -15 6 -149 9 -180 5z"/>
<path d="M6205 7132 c-20 -3 -20 -10 -18 -535 1 -293 2 -535 2 -538 2 -13 384
-6 428 7 135 41 197 142 196 319 -2 111 -54 202 -129 221 -32 8 -30 22 3 35
24 9 78 62 78 78 0 3 4 12 9 19 22 35 26 163 7 222 -27 87 -78 132 -179 159
-37 11 -346 20 -397 13z m342 -214 c17 -18 24 -38 27 -81 3 -31 0 -59 -5 -63
-5 -3 -7 -9 -4 -13 2 -5 -6 -18 -19 -30 -18 -17 -37 -22 -87 -24 l-64 -2 -3
114 c-2 75 1 117 8 121 6 4 37 6 68 4 42 -3 61 -9 79 -26z m-12 -409 c16 -8
36 -27 43 -43 19 -39 19 -166 0 -166 -4 0 -8 -6 -8 -13 0 -23 -44 -40 -112
-43 l-68 -3 0 138 c0 76 2 140 4 142 10 10 114 1 141 -12z"/>
<path d="M7303 6888 c-133 -22 -207 -109 -250 -293 -11 -48 -9 -206 4 -269 46
-227 219 -331 447 -271 111 29 111 29 112 120 0 44 -1 83 -3 87 -2 3 -22 -4
-46 -17 -72 -40 -163 -49 -217 -22 -53 26 -76 63 -86 138 l-7 49 197 0 196 0
1 63 c1 71 0 100 -7 142 -7 47 -10 58 -23 88 -6 16 -11 30 -11 33 0 19 -61 89
-99 113 -65 41 -129 53 -208 39z m109 -188 c18 -25 25 -45 33 -107 l5 -33 -94
0 -94 0 3 28 c8 93 44 145 97 140 19 -2 38 -13 50 -28z"/>
<path d="M8222 6883 c-30 -10 -95 -63 -77 -63 3 0 1 -6 -5 -12 -6 -7 -17 -22
-24 -33 -13 -18 -15 -15 -26 42 l-12 61 -87 1 -88 1 1 -412 1 -413 105 0 105
0 1 225 c2 248 5 280 29 331 25 53 63 72 140 71 l40 -1 0 99 c0 54 -3 102 -8
106 -12 12 -56 11 -95 -3z"/>
<path d="M9914 6891 c-3 -3 -14 -6 -26 -8 -27 -4 -83 -47 -104 -79 -23 -34
-31 -30 -46 24 l-14 47 -82 3 c-91 3 -87 7 -83 -73 1 -16 1 -41 0 -55 0 -14 0
-68 0 -120 1 -52 1 -106 0 -120 0 -14 -1 -68 0 -120 2 -119 2 -98 -1 -218 -2
-61 1 -107 7 -110 18 -12 205 -10 205 2 1 6 1 125 2 264 1 138 5 252 8 252 3
0 6 8 7 18 3 58 32 98 79 111 39 11 71 -5 85 -43 17 -47 18 -51 19 -342 l1
-270 107 0 107 1 1 300 c1 316 -5 369 -45 441 -25 45 -78 85 -116 88 -14 0
-25 3 -25 6 0 6 -80 7 -86 1z"/>
<path d="M5842 5924 c-282 -82 -502 -302 -583 -584 -34 -115 -41 -278 -19
-387 6 -29 12 -56 12 -60 2 -19 52 -142 76 -188 70 -133 235 -298 343 -345 13
-5 31 -14 39 -19 43 -27 144 -58 215 -68 40 -5 40 -5 52 38 27 97 27 99 1 99
-14 0 -38 4 -54 9 -16 5 -49 15 -74 22 -57 17 -132 53 -189 92 -55 38 -171
155 -171 173 0 8 -4 14 -9 14 -13 0 -67 107 -90 180 -39 122 -44 242 -16 385
10 49 56 157 90 210 30 47 48 70 108 134 75 81 252 172 362 186 20 3 41 7 45
10 13 8 -24 118 -41 120 -8 2 -52 -8 -97 -21z"/>
<path d="M8893 5752 l-43 -3 0 -62 c-1 -74 -1 -1021 0 -1058 l0 -25 105 0 c58
0 105 3 106 6 0 3 2 64 2 137 1 72 4 133 7 135 3 2 19 15 36 31 l30 27 12 -22
c6 -13 18 -41 27 -63 26 -60 32 -74 65 -149 16 -38 30 -75 30 -82 0 -17 -7
-16 118 -19 56 -2 104 1 107 5 4 6 -86 205 -200 445 -12 26 -12 33 0 52 8 12
23 37 33 55 27 48 116 192 122 198 3 3 13 19 23 37 l17 31 -112 -1 -112 -2
-83 -140 c-45 -77 -82 -146 -83 -152 0 -7 -4 -13 -10 -13 -6 0 -9 -3 -8 -7 3
-13 -13 -53 -21 -53 -4 0 -6 19 -4 43 2 23 5 178 6 344 l2 302 -65 3 c-36 2
-84 2 -107 0z"/>
<path d="M7699 5735 c-29 -16 -39 -33 -46 -80 -6 -44 12 -82 49 -105 100 -61
215 38 167 143 -23 51 -112 73 -170 42z"/>
<path d="M6451 5687 c-52 -10 -127 -55 -165 -98 -30 -33 -92 -157 -100 -199
-3 -14 -8 -36 -11 -50 -21 -84 -21 -284 0 -390 2 -14 7 -38 10 -55 21 -109
111 -235 194 -272 59 -26 71 -28 171 -28 81 0 102 4 145 25 l50 25 0 83 c0 46
-2 88 -6 93 -3 5 -23 0 -45 -10 -56 -27 -118 -38 -165 -28 -70 14 -114 76
-137 192 -7 40 -9 270 -1 320 20 136 95 225 178 212 22 -4 99 -35 131 -54 6
-4 70 146 70 163 0 13 -62 47 -115 64 -49 16 -145 20 -204 7z"/>
<path d="M10641 5601 c-10 -7 -40 -92 -47 -131 -4 -25 -79 -100 -100 -100 -16
0 -21 -17 -20 -65 1 -39 2 -40 39 -43 30 -3 37 -7 38 -25 0 -12 2 -121 4 -242
1 -121 5 -231 9 -245 19 -80 65 -131 134 -151 53 -15 173 -7 205 14 21 14 23
21 21 93 -2 93 -1 89 -16 77 -24 -18 -98 -16 -119 3 -18 16 -19 33 -19 246 l0
230 33 -2 c58 -3 120 0 115 6 -4 3 -2 19 2 35 6 20 5 29 -3 29 -7 0 -8 3 -1
10 5 5 8 27 6 49 l-4 39 -56 0 c-32 0 -65 1 -74 1 -16 1 -18 12 -18 86 0 47
-3 85 -7 86 -37 4 -115 4 -122 0z"/>
<path d="M7368 5444 c-2 -1 -17 -5 -33 -8 -34 -6 -92 -65 -108 -110 -10 -29
-10 -29 -19 -7 -11 31 -20 72 -20 94 1 15 -10 17 -89 17 l-89 0 0 -413 0 -414
108 0 107 1 -1 210 c-1 230 8 329 31 352 8 9 15 19 15 24 0 18 81 47 121 43
l39 -4 1 43 c0 24 1 70 2 103 1 59 0 60 -31 66 -17 3 -33 5 -34 3z"/>
<path d="M8352 5435 c-90 -21 -146 -73 -185 -172 -23 -58 -27 -83 -34 -201
-13 -228 48 -386 173 -448 53 -26 190 -26 257 -1 l47 19 0 93 0 94 -52 -23
c-154 -66 -209 -6 -209 224 0 65 4 100 11 120 1 3 2 9 1 14 -4 17 23 71 42 89
19 16 40 22 62 17 6 -1 17 -3 25 -5 8 -2 28 -8 43 -14 16 -6 30 -11 32 -11 2
0 13 30 26 68 12 37 25 72 30 78 5 6 -7 18 -35 31 -73 36 -155 45 -234 28z"/>
<path d="M9926 5438 c-126 -26 -211 -132 -239 -300 -18 -105 -11 -253 15 -317
6 -14 12 -31 13 -37 5 -20 57 -98 79 -116 25 -22 93 -60 121 -67 11 -3 65 -6
120 -5 79 0 112 5 158 23 l57 22 0 85 c0 89 -6 98 -44 69 -10 -8 -23 -12 -27
-9 -5 3 -9 0 -9 -7 0 -7 -3 -9 -6 -6 -4 3 -15 2 -25 -3 -29 -16 -124 -16 -156
0 -49 26 -78 75 -88 148 l-5 40 192 2 c105 0 194 2 198 5 8 5 5 153 -4 215
-11 71 -65 169 -114 207 -64 48 -154 68 -236 51z m112 -177 c21 -26 34 -63 38
-109 l5 -43 -93 3 -93 3 3 35 c5 41 26 95 45 114 27 28 71 26 95 -3z"/>
<path d="M7659 5428 c-4 -11 -3 -818 1 -819 21 -6 201 -5 205 1 3 5 7 550 5
773 l0 47 -105 0 c-58 0 -105 -1 -106 -2z"/>
<path d="M9032 4060 c2 -115 1 -210 -2 -210 -3 0 -17 18 -32 39 -82 116 -257
88 -322 -51 -43 -91 -60 -180 -60 -303 1 -90 13 -194 26 -219 6 -11 11 -23 11
-26 0 -3 3 -15 8 -28 5 -13 9 -25 9 -28 0 -3 5 -10 10 -17 6 -7 19 -24 30 -39
11 -15 43 -37 71 -51 43 -20 58 -22 105 -16 63 8 115 43 141 92 l16 32 18 -40
c10 -22 20 -48 22 -57 4 -14 17 -17 83 -16 l79 1 -1 566 c-1 311 -2 569 -3
574 0 4 -49 7 -107 7 l-106 0 4 -210z m-50 -300 c38 -38 43 -63 44 -220 1 -85
-2 -159 -6 -165 -5 -5 -8 -12 -8 -15 3 -18 -16 -49 -36 -60 -66 -35 -112 1
-132 103 -10 47 -11 228 -2 234 5 2 6 8 3 13 -7 11 22 90 40 110 19 21 76 20
97 0z"/>
<path d="M6350 4202 c-5 -2 -10 -11 -10 -20 0 -9 -13 -69 -29 -132 -16 -63
-27 -118 -24 -122 2 -5 -1 -8 -6 -8 -6 0 -10 -3 -9 -7 1 -5 -4 -33 -11 -63 -7
-30 -14 -64 -17 -75 -2 -11 -13 -56 -24 -100 -31 -122 -42 -173 -40 -177 1 -2
-3 -15 -9 -31 -6 -15 -13 -38 -15 -50 -2 -12 -9 -42 -16 -66 -6 -25 -13 -54
-15 -65 -1 -12 -5 -28 -8 -36 -7 -21 -27 -107 -27 -119 0 -7 41 -10 109 -10
l109 1 6 37 c3 20 6 39 7 43 1 7 18 83 34 154 5 21 10 21 139 20 75 0 139 -5
145 -11 5 -5 12 -26 15 -45 3 -19 13 -71 22 -116 l17 -81 113 0 c101 0 112 1
104 16 -8 13 -37 128 -56 219 -2 13 -21 90 -40 170 -20 81 -37 154 -39 162 -2
8 -20 80 -40 160 -20 80 -38 154 -40 165 -2 11 -4 20 -5 20 -1 0 -3 9 -5 20
-2 11 -10 46 -18 77 -8 32 -12 60 -9 63 3 3 -1 6 -9 6 -35 3 -290 4 -299 1z
m164 -233 c3 -20 8 -42 11 -50 3 -8 7 -27 9 -44 3 -16 7 -41 10 -55 11 -44 15
-64 21 -95 3 -16 8 -41 12 -55 3 -14 7 -31 9 -39 2 -8 5 -25 9 -38 5 -23 5
-23 -88 -23 -52 0 -96 2 -99 5 -3 3 1 31 9 63 7 31 16 68 18 82 2 14 14 66 25
115 20 84 25 113 29 175 2 33 17 9 25 -41z"/>
<path d="M8078 3965 c-2 -2 -27 -5 -56 -8 -53 -6 -187 -51 -197 -67 -3 -5 10
-41 30 -79 l35 -70 56 26 c125 57 211 24 207 -79 -2 -58 2 -55 -80 -58 -43 -1
-86 -3 -95 -3 -10 -1 -18 -5 -18 -10 0 -4 -4 -6 -9 -3 -13 9 -93 -28 -123 -55
-49 -46 -68 -101 -69 -194 0 -138 52 -226 147 -250 91 -23 184 9 234 81 25 37
35 37 44 -2 4 -14 14 -37 23 -50 14 -22 22 -24 89 -24 l74 0 -3 318 c-2 174
-7 327 -10 339 -16 62 -70 130 -124 157 -27 14 -148 37 -155 31z m75 -522 c-1
-26 -5 -57 -7 -68 -3 -11 -5 -25 -5 -31 -1 -7 -15 -26 -33 -43 -51 -49 -103
-39 -125 26 -11 31 -10 48 8 109 10 32 54 59 109 67 45 6 56 -7 53 -60z"/>
<path d="M11138 3962 c-16 -2 -28 -8 -28 -13 0 -5 -3 -8 -7 -8 -28 5 -80 -38
-111 -90 l-20 -33 -15 28 c-23 45 -58 79 -100 98 -49 23 -139 19 -192 -7 -35
-17 -51 -33 -92 -86 -13 -18 -14 -17 -32 54 l-11 41 -72 -1 c-40 -1 -78 -2
-83 -3 -8 -1 -11 -133 -10 -409 l0 -408 106 -2 106 -3 0 233 c1 250 5 307 29
367 17 41 30 50 83 57 25 3 39 -2 53 -17 10 -11 16 -20 13 -20 -3 0 0 -10 7
-22 9 -17 12 -102 13 -308 l1 -285 107 -2 c96 -2 107 -1 107 15 1 9 3 130 5
267 2 138 5 257 8 265 20 69 43 97 87 110 40 11 78 -20 90 -75 5 -22 10 -163
10 -313 l0 -273 108 2 108 1 -1 317 c-2 255 -5 325 -18 364 -18 58 -58 112
-95 131 -34 17 -117 32 -154 28z"/>
<path d="M7255 3935 c-90 -43 -143 -130 -162 -265 -9 -67 -8 -231 3 -287 12
-65 51 -155 81 -189 79 -88 242 -113 352 -55 l35 18 1 87 c0 56 -4 86 -11 86
-6 0 -27 -8 -48 -18 -52 -26 -123 -28 -148 -5 -41 36 -50 77 -51 218 -2 159
14 219 65 246 23 12 93 2 124 -17 20 -14 22 -12 51 68 l30 83 -46 24 c-36 18
-65 24 -136 27 -79 3 -96 1 -140 -21z"/>
<path d="M9730 3950 c-8 -5 -17 -7 -21 -4 -4 2 -12 -3 -19 -11 -7 -8 -18 -15
-24 -15 -10 0 -56 -41 -81 -72 -17 -21 -56 -109 -61 -137 -2 -14 -8 -48 -13
-74 -8 -49 -7 -203 3 -246 19 -83 58 -158 108 -203 34 -31 109 -69 147 -75 90
-14 231 7 286 43 19 13 22 22 21 89 -1 40 -4 76 -7 79 -3 3 -24 -3 -47 -14
-50 -24 -117 -38 -161 -34 -77 9 -131 70 -134 153 l-2 46 180 2 c99 1 186 2
193 2 16 1 17 159 1 233 -13 59 -53 143 -84 173 -50 50 -97 68 -185 71 -47 2
-92 -1 -100 -6z m137 -174 c19 -21 51 -132 41 -141 -4 -4 -102 -8 -155 -6 -30
1 -31 2 -27 41 6 52 29 106 51 119 31 18 68 12 90 -13z"/>
<path d="M11607 3921 c3 -14 10 -34 14 -43 5 -9 9 -26 9 -37 0 -12 4 -29 10
-39 5 -9 25 -73 45 -142 20 -69 43 -147 51 -175 8 -27 17 -57 19 -65 2 -8 4
-15 5 -15 1 0 3 -7 5 -15 1 -8 15 -55 31 -105 15 -49 29 -101 31 -114 2 -14 8
-32 13 -41 12 -22 4 -62 -19 -109 -31 -60 -54 -74 -121 -75 -33 -1 -60 -5 -61
-11 -4 -50 -3 -149 3 -158 5 -8 41 -12 100 -12 72 0 102 5 133 20 48 23 105
73 105 92 0 7 4 13 9 13 8 0 48 83 57 119 2 9 20 72 39 141 36 125 42 145 49
178 2 9 16 62 31 117 15 55 28 107 30 115 2 8 4 15 5 15 1 0 3 7 5 15 1 8 10
42 20 75 15 54 22 83 39 153 2 12 7 26 10 30 5 8 16 54 19 82 2 13 -16 15
-108 15 l-109 0 -8 -36 c-4 -20 -9 -47 -12 -60 -4 -25 -55 -274 -61 -299 -2
-8 -9 -54 -16 -102 -7 -49 -16 -88 -21 -88 -4 0 -8 6 -9 13 -3 56 -19 148 -26
161 -4 5 -7 19 -9 30 -2 12 -5 30 -8 41 -3 11 -19 76 -36 145 -17 69 -35 141
-41 161 l-9 36 -110 0 -109 -1 6 -25z"/>
</g>
</svg>
